<svg width="703" height="667" viewBox="0 0 703 667" fill="none" xmlns="http://www.w3.org/2000/svg">
<path d="M429.904 476.139C444.986 475.894 487.331 470.954 492.934 490.183C497.186 504.783 486.544 513.572 473.561 517.631C491.636 521.812 505.174 525.661 501.371 547.201C491.486 569.132 450.716 563.793 430.091 563.733C432.694 560.574 434.719 558.825 434.756 554.439C434.959 530.749 435.626 506.037 434.299 482.464C434.224 481.182 430.834 477.261 429.904 476.139ZM449.066 558.226C461.006 558.478 469.646 559.73 480.401 554.168C484.646 550.169 486.776 547.061 487.061 541.094C487.834 524.913 471.941 521.108 458.974 521.05C455.921 521.058 452.876 521.12 449.831 521.235C447.874 523.841 448.999 553.358 449.066 558.226ZM448.894 516.431C457.894 516.141 463.706 516.687 471.761 512.527C487.406 498.222 478.984 480.792 457.999 481.188C455.704 481.225 453.401 481.362 451.114 481.6L449.366 482.279C448.421 488.929 448.894 508.377 448.894 516.431Z" fill="#FAF7F2"/>
<path d="M303.967 476.095C320.568 475.894 361.361 471.075 366.476 493.127C370.129 508.871 359.269 519.839 344.437 523.393C354.469 533.157 365.464 556.457 376.271 563.71C368.029 563.601 360.244 566.405 354.784 559.478C349.237 553.335 337.171 533.387 331.996 525.479L322.908 525.326C322.766 536.382 320.716 555.194 327.106 563.616L305.17 563.873C311.308 554.332 309.159 539.433 309.236 528.082C309.339 513.074 309.482 497.386 308.783 482.414C307.507 480.297 305.548 478.049 303.967 476.095ZM322.722 520.19C332.454 520.179 337.313 520.519 345.695 514.811C349.879 510.591 352.781 505.011 352.654 498.953C352.581 494.166 350.554 489.617 347.044 486.361C341.268 481.051 334.254 480.887 326.92 481.318C325.742 481.389 324.565 481.47 323.389 481.561C322.37 494.566 323.14 507.305 322.722 520.19Z" fill="#FAF7F2"/>
<path d="M696.806 476.101L692.651 481.363C693.259 493.763 695.929 554.559 701.171 560.98C701.906 561.888 702.491 562.307 702.551 563.525C695.479 563.904 687.896 563.793 680.764 563.806C687.221 551.292 681.784 533.991 681.994 519.911C682.061 515.573 681.319 494.915 679.991 492.188L679.181 493.401C673.864 505.893 667.144 519.164 661.631 531.726C658.759 538.265 652.084 553.525 648.566 559.005C646.759 559.94 646.444 559.729 644.314 559.397C639.476 554.712 616.189 500.348 610.766 489.658C610.736 499.603 607.774 555.842 611.434 560.844C612.049 561.686 612.416 562.235 612.761 563.259C610.481 564.069 598.489 563.7 595.256 563.673L599.899 558.098C602.906 542.579 603.446 500.827 603.484 483.192C603.491 481.458 601.309 478.153 600.251 476.55L619.181 476.386L620.291 476.684C628.601 497.559 641.051 519.827 649.526 541.027C659.284 519.32 669.176 497.672 679.189 476.081L696.806 476.101Z" fill="#FAF7F2"/>
<path d="M520.159 476.251C538.759 475.946 557.809 476.153 576.469 476.029C576.304 479.883 576.626 484.59 576.791 488.506C565.421 480.366 552.491 481.978 538.669 481.983L538.549 515.759C547.969 515.609 561.386 517.187 569.629 513.482L569.584 525.427C562.286 520.184 547.976 521.757 538.586 521.939L538.654 536.149L538.759 558.32C555.296 558.472 566.516 559.909 581.426 551.813C580.091 555.766 578.891 559.764 577.826 563.799C559.849 564.32 538.601 563.723 520.271 563.696C528.679 551.202 523.256 501.29 524.156 484.219C524.209 483.229 521.036 478.187 520.361 476.708L520.159 476.251Z" fill="#FAF7F2"/>
<path d="M177.481 549.28C182.216 532.386 189.851 515.467 195.113 498.647C197.435 491.223 202.588 483.539 199.145 476.413C200.432 475.81 212.621 476.205 214.873 476.236C212.894 478.761 211.539 481.241 209.931 484.005C206.11 492.91 201.845 505.316 198.394 514.518C192.144 530.909 186.049 547.36 180.11 563.867L169.412 563.778C157.432 538.472 149.284 506.57 136.828 481.113C136.332 480.1 133.103 477.127 132.083 476.191C139.412 476.375 146.709 475.656 154.046 476.3L154.495 477.153C154.046 478.275 152.872 481.143 153.233 482.235C160.661 504.703 170.244 526.749 177.481 549.28Z" fill="#FAF7F2"/>
<path d="M226.688 476.184C245.904 475.846 265.173 476.263 284.446 475.973C284.317 479.783 284.498 484.183 284.563 488.04C272.819 480.678 259.778 481.991 246.174 481.978L246.14 515.614C255.744 515.808 268.91 516.914 277.609 513.663L277.628 524.731C269.369 520.555 255.847 521.766 246.22 521.876L246.177 539.15L246.194 558.27C263.932 558.452 274.779 560.372 290.447 550.996C288.689 555.46 287.445 559.26 286.002 563.805L228.054 563.678L232.354 557.153C233.048 546.363 232.513 530.792 232.619 519.683C232.717 509.457 233.118 492.071 232.066 482.422C230.388 480.371 228.438 478.204 226.688 476.184Z" fill="#FAF7F2"/>
<path d="M0 476.155C4.3095 476.579 19.4955 475.523 21.0758 476.81C20.5215 477.99 19.2157 480.742 19.5802 481.951C26.3445 504.331 37.4137 526.403 43.7662 548.853C50.8125 527.905 58.908 507.144 66.6195 486.431C68.0977 482.461 68.5612 480.643 66.6262 476.777C67.5382 476.192 80.9708 476.267 83.1113 476.164C81.2378 478.254 79.629 480.464 77.9355 482.699C74.1773 490.007 69.6975 502.633 66.6277 510.659C59.8657 528.397 53.2357 546.184 46.7392 564.021L36.7343 563.873C25.8173 536.358 14.3333 501.008 0 476.155Z" fill="#FAF7F2"/>
<path d="M96.3577 476.081C104.225 476.306 111.424 476.519 119.281 476.232C116.944 479.07 114.97 480.972 114.967 484.762C114.945 508.759 113.983 533.118 115.521 557.045C115.653 559.098 117.436 561.477 118.611 563.016C116.881 564.286 100.637 563.856 97.2201 563.859C100.645 558.042 100.981 554.819 100.899 548.081C100.631 526.055 101.321 503.807 100.468 481.804L96.3577 476.081Z" fill="#FAF7F2"/>
<path d="M191.861 288.032C226.54 286.79 258.222 292.769 287.63 311.883C313.901 328.637 333.394 354.153 342.654 383.908C345.332 392.686 346.809 402.022 348.714 411.053C330.074 384.689 284.519 355.044 253.325 347.332C262.761 352.428 271.93 358.005 280.794 364.043C306.732 381.828 324.461 400.86 343.292 425.375C313.024 423.406 283.849 417.956 256.791 403.547C212.279 379.96 179.044 339.549 164.489 291.313C172.87 289.246 183.11 288.714 191.861 288.032Z" fill="#FAF7F2"/>
<path d="M495.459 287.977C507.624 286.92 527.874 288.979 539.717 291.25C528.707 320.291 521.154 338.472 499.412 362.37C460.982 404.621 417.129 422.098 361.232 425.262C379.524 401.556 389.912 390.047 412.667 370.794C425.567 361.157 436.269 355.789 449.357 347.307C416.124 358.712 376.149 381.163 356.004 410.691C359.364 388.478 363.182 372.335 375.489 353.215C403.419 309.802 445.472 290.772 495.459 287.977Z" fill="#FAF7F2"/>
<path d="M336.864 122.909C337.179 122.862 337.487 122.816 337.794 122.77C374.079 118.902 410.454 129.214 439.314 151.551C466.209 172.641 484.547 200.847 491.507 234.481C493.599 244.611 493.832 253.406 495.062 263.533C489.759 264.218 484.449 264.858 479.139 265.454C479.184 236.114 469.149 206.045 450.504 183.291C429.639 157.655 399.459 141.341 366.587 137.927C334.217 131.624 290.192 147.193 266.396 169.493C237.23 196.826 226.89 226.415 224.85 265.395C220.092 264.578 214.322 264.363 209.435 264.045C208.11 232.88 221.347 197.171 241.257 173.211C265.112 144.32 299.55 126.2 336.864 122.909Z" fill="#D3A962"/>
<path d="M344.417 211.994C366.504 207.609 387.969 221.949 392.379 244.038C396.789 266.127 382.479 287.614 360.399 292.052C338.282 296.497 316.759 282.152 312.341 260.025C307.924 237.9 322.291 216.385 344.417 211.994Z" fill="#D3A962"/>
<path d="M350.589 0L353.994 1.54088C355.809 4.22278 356.064 18.2429 355.997 22.2767C355.517 50.7304 358.269 79.7587 355.892 108.059C355.892 108.059 353.274 110.766 353.057 110.991C347.657 109.308 346.262 107.56 346.329 101.702C346.689 69.2937 345.909 36.6112 348.137 4.2813C348.249 2.61589 349.479 1.16428 350.589 0Z" fill="#D3A962"/>
<path d="M169.144 80.8953C173.149 81.5802 180.145 87.8832 182.636 90.7407C190.396 99.6438 240.687 144.231 242.244 150.702C241.939 153.328 240.993 153.862 239.09 155.761C237.59 155.897 236.51 156.224 235.12 155.556C229.304 152.762 169.224 91.004 167.701 85.5284C167.23 83.8367 168.416 82.3649 169.144 80.8953Z" fill="#D3A962"/>
<path d="M532.089 81.1345C533.019 81.4076 534.317 82.0955 535.239 82.5329C535.772 83.6836 536.312 84.1 535.682 84.9214C526.974 96.3467 474.602 152.849 466.397 156.652C462.947 154.463 461.222 154.181 461.574 149.868C466.427 142.169 524.409 84.986 532.089 81.1345Z" fill="#D3A962"/>
<path d="M188.575 253.483C193.308 252.985 195.846 253.187 197.841 257.89C197.726 259.879 197.732 260.86 196.115 262.292C191.446 266.429 125.942 266.509 113.732 266.773C109.747 267.364 106.652 267.219 104.001 264.199C103.946 260.443 108.296 259.656 111.546 259.235C120.166 258.121 129.023 257.752 137.715 257.09C154.655 255.7 171.609 254.497 188.575 253.483Z" fill="#D3A962"/>
<path d="M444.977 33.5737C448.397 34.4612 447.504 33.789 449.694 35.858C451.007 44.0748 425.162 105.495 421.052 117.356C420.624 118.591 418.764 120.488 417.729 121.32C414.069 120.306 413.274 120.052 411.774 116.78C411.654 109.801 440.394 40.6772 444.977 33.5737Z" fill="#D3A962"/>
<path d="M511.067 253.245C516.467 253.103 522.932 253.8 528.444 254.205C550.157 255.797 571.982 257.222 593.604 259.719C596.454 260.049 597.789 260.616 599.387 262.921C598.719 265.673 599.199 264.638 596.874 266.926C570.797 266.368 544.712 264.844 518.604 264.545C516.459 264.521 508.254 264.7 507.504 261.938C506.019 256.485 506.334 255.652 511.067 253.245Z" fill="#D3A962"/>
<path d="M254.534 33.6096L257.699 34.3816C264.057 39.5473 286.222 102.467 291.714 114.389C292.801 116.749 291.248 118.299 289.974 120.267C288.422 120.32 286.22 120.617 284.881 119.77C280.562 117.034 254.587 45.8901 252.917 38.6854C252.375 36.344 253.326 35.4851 254.534 33.6096Z" fill="#D3A962"/>
<path d="M120.899 162.118C127.767 163.505 200.806 196.173 205.095 200.163C205.493 203.042 204.918 203.135 203.691 206.06C195.667 206.844 163.051 189.163 153.792 185.211C148.305 182.869 122.869 170.7 120.028 167.715C119.475 165.074 119.815 164.752 120.899 162.118Z" fill="#D3A962"/>
<path d="M581.027 162.457C582.474 162.893 582.032 162.802 583.284 163.889C583.404 164.909 583.757 166.051 583.097 166.533C572.072 174.585 510.309 204.72 500.844 206.635C498.939 204.267 497.657 202.962 498.384 199.961C503.739 195.044 571.644 165.151 581.027 162.457Z" fill="#D3A962"/>
<path d="M236.63 94.3521C240.224 94.9604 241.012 95.319 243.237 98.5426C250.386 108.897 259.289 119.393 264.435 130.804C264.893 131.818 262.74 134.075 262.114 134.886C256.152 135.68 253.673 131.093 250.796 126.409C245.276 117.419 239.162 108.179 235.199 98.4181C234.587 96.9102 235.863 95.5891 236.63 94.3521Z" fill="#D3A962"/>
<path d="M461.379 94.4825C463.397 94.5973 463.787 94.8884 465.684 95.7098C466.322 96.6641 467.064 97.2905 466.772 98.0834C463.907 106.008 449.049 131.122 443.844 135.747C439.877 134.83 439.149 134.383 438.294 130.705C439.749 124.996 457.007 99.5823 461.379 94.4825Z" fill="#D3A962"/>
<path d="M391.179 66.0574C393.212 66.6793 393.324 66.6898 394.974 67.9853C396.392 74.0026 391.457 101.357 389.664 108.851C389.402 109.96 386.094 111.374 384.879 111.94C384.249 111.562 382.629 110.598 382.389 110.043C379.179 102.8 386.349 69.9103 391.179 66.0574Z" fill="#D3A962"/>
<path d="M311.381 66.1392L313.578 67.4055C316.937 72.0708 322.284 100.45 323.102 107.728C323.276 109.28 321.24 110.347 319.78 111.491C315.329 110.644 314.329 110.167 313.352 105.569C310.905 94.058 308.739 82.2313 307.572 70.5247C307.395 68.7513 310.267 67.0259 311.381 66.1392Z" fill="#D3A962"/>
<path d="M181.2 149.074C186.941 150.359 215.956 167.844 218.663 172.343C219.012 174.648 218.185 175.816 217.203 177.967C211.514 178.496 184.59 159.415 180.318 154.742C179.796 151.708 180.092 152.288 181.2 149.074Z" fill="#D3A962"/>
<path d="M518.597 149.524L520.502 150.054C522.242 151.986 521.919 151.065 521.972 153.43C519.122 159.076 494.207 175.085 487.719 178.551L485.154 176.899C482.529 171.881 487.644 168.663 491.672 166.033C500.424 160.308 509.372 154.456 518.597 149.524Z" fill="#D3A962"/>
<path d="M538.944 219.65C542.012 219.173 545.252 218.359 547.584 220.663C548.192 224.549 544.524 225.861 541.217 226.711C532.082 229.052 522.407 230.549 513.167 232.491C508.832 233.529 507.354 233.365 504.212 230.158C502.772 221.968 532.074 220.575 538.944 219.65Z" fill="#D3A962"/>
<path d="M155.874 219.056C162.272 219.016 194.435 223.577 198.315 226.804C198.959 229.658 198.546 229.437 197.645 232.418C190.838 233.971 162.989 227.706 156.76 224.717C155.32 222.438 155.824 222.08 155.874 219.056Z" fill="#D3A962"/>
<path d="M67.883 608.908L68.288 608.936C69.1603 610.159 68.903 625.27 68.9758 628.153C71.258 626.685 72.9883 625.523 75.7003 624.981C79.007 624.295 82.4495 625.024 85.1945 626.992C93.4205 632.925 90.9883 643.605 85.3085 650.357C82.2605 652.72 80.303 653.493 76.4878 653.898C56.5468 655.998 63.6702 636.529 62.9922 624.473C62.762 620.384 62.2378 615.408 62 610.948C63.6395 609.36 65.5385 609.338 67.883 608.908ZM77.5512 651.002C87.224 644.386 86.063 632.438 74.6983 628.173C72.2758 629.408 69.848 630.094 69.0973 632.948C66.8803 641.373 66.6785 650.89 77.5512 651.002Z" fill="#D3A962"/>
<path d="M179.832 624.335C188.1 622.619 196.181 627.974 197.825 636.258C199.47 644.543 194.047 652.578 185.751 654.153C177.555 655.706 169.638 650.365 168.013 642.179C166.388 633.995 171.663 626.03 179.832 624.335ZM185.756 651.175C195.345 642.893 193.139 625.956 179.834 627.524C170.851 635.414 171.944 651.145 185.756 651.175Z" fill="#D3A962"/>
<path d="M465.187 625.186L473.392 625.291C475.327 632.251 477.757 639.064 480.667 645.676C482.257 640.947 485.182 626.489 489.735 625.546C493.072 628.17 497.212 641.824 498.945 646.704C500.415 640.574 505.972 631.096 504.397 625.758C506.137 624.713 508.942 624.757 510.615 626.001L510.142 627.722C507 634.803 503.122 646.734 499.17 653.148C498.675 653.943 498.03 653.62 496.867 653.538C492.795 650.229 489.675 639.866 487.762 634.709C486.255 639.578 483.69 652.105 478.275 652.975C473.79 649.982 470.002 631.793 465.187 625.186Z" fill="#D3A962"/>
<path d="M381.067 611.102C386.625 610.716 390.105 611.518 395.4 612.959L395.31 622.816C391.305 616.26 382.942 610.451 376.477 617.295C372.112 632.298 408.727 627.022 396.72 648.662C394.642 652.413 388.635 653.605 384.547 654.086C378.562 654.221 375.54 653.65 369.915 651.73C369.78 648.294 369.562 644.813 369.39 641.374C370.275 642.852 371.497 645.323 372.825 646.501C378.615 651.79 395.52 654.348 391.8 641.44C388.77 633.565 372.195 635.074 370.32 625.845C368.392 616.344 372.84 613.153 381.067 611.102Z" fill="#D3A962"/>
<path d="M618.645 608.315C619.29 612.414 618.847 631.789 618.802 636.878C623.67 632.677 626.617 629.994 631.005 625.294L638.49 625.309C633.622 629.242 629.362 632.584 624.262 636.213C629.632 641.857 633.24 647.304 639.322 652.758L639.562 653.245C638.1 654.22 633.195 653.778 631.102 653.725C627.067 649.044 622.875 643.673 618.93 638.845C618.697 643.77 622.155 657.641 612.112 653.44C613.845 644.43 612.802 619.942 611.707 610.65C612.915 609.324 616.672 608.777 618.645 608.315Z" fill="#D3A962"/>
<path d="M260.932 624.581L261.743 624.561C282.385 624.141 266.569 643.132 276.613 652.713L275.555 653.583C272.987 654.213 272.652 654.28 270.105 653.62C268.869 652.307 268.818 652.165 267.228 651.167L266.43 651.497C259.869 654.22 257.819 654.903 251.128 652.15C245.49 638.323 256.877 640.07 265.483 637.335C268.44 634.434 267.384 631.174 264.603 628.404C259.436 627.014 258.483 630.515 253.101 632.601L252.146 631.704C252.142 628.614 251.786 629.732 253.263 627.288C255.729 625.545 258.017 625.236 260.932 624.581ZM260.106 650.867C264.833 649.502 268.097 647.919 267.483 642.001L266.439 640.455C265.248 640.316 264.551 640.143 263.376 640.362C258.765 641.16 255.072 641.659 256.143 647.296C257.683 649.337 257.905 649.584 260.106 650.867Z" fill="#D3A962"/>
<path d="M329.493 624.742C336.696 625.011 341.625 627.2 343.88 635.372C344.314 636.945 343.765 637.199 342.848 638.325C339.609 639.282 326.688 638.929 322.278 638.979C322.324 639.151 322.37 639.323 322.415 639.494L322.665 640.346C325.172 649.104 330.769 652.525 339.423 648.549C340.373 647.866 341.124 647.514 342.16 646.974C343.751 654.776 319.851 660.057 316.546 642.279C315.738 638.083 316.68 633.739 319.152 630.254C322.041 626.26 325.064 625.497 329.493 624.742ZM333.988 635.997L336.424 635.704C339.3 631.019 332.931 627.042 328.22 627.357C325.68 629.462 325.045 629.893 323.291 632.854L323.402 634.63C326.434 636.791 330.036 636.097 333.988 635.997Z" fill="#D3A962"/>
<path d="M447.54 624.555C454.26 624.571 463.41 629.133 462.42 636.492C458.115 641.112 447.757 636.899 442.275 640.037C441.75 641.809 441.63 641.126 442.335 642.742C446.115 651.415 452.017 651.317 459.3 647.919C460.005 647.116 459.562 647.431 460.815 647.266L460.575 649.217C455.017 656.929 446.01 654.581 439.162 650.424C432.555 639.754 433.785 628.279 447.54 624.555ZM451.365 636.115C454.537 635.819 454.02 636.386 455.685 634.614C455.677 629.704 451.702 627.299 447.15 627.11C444.84 629.197 443.902 629.869 442.365 632.689L442.312 634.614C444.93 636.962 447.645 636.269 451.365 636.115Z" fill="#D3A962"/>
<path d="M299.209 624.604C306.425 624.401 308.167 629.155 308.893 635.329C309.259 638.444 310.248 651.962 308.578 653.665L303.382 653.583C300.981 649.232 306.399 633.015 298.618 627.834C295.306 627.632 292.716 629.828 290.28 631.882C290.01 637.901 288.623 647.911 291.18 653.095C289.774 654.16 285.364 653.793 283.309 653.785C283.818 647.964 284.715 631.156 282.047 626.401L282.665 625.299C286.871 624.314 287.22 624.78 289.985 627.645C293.811 626.042 295.189 625.48 299.209 624.604Z" fill="#D3A962"/>
<path d="M157.53 609.069L158.308 609.571C158.149 620.719 158.524 631.949 158.505 643.114C158.494 650.094 158.376 657.739 152.88 662.9C148.991 666.553 145.408 666.148 140.494 666.013C140.793 664.22 140.902 663.905 141.517 662.18C145.398 659.929 144.963 662.72 148.719 661.197C153.532 655.233 151.655 619.566 151.248 610.138L157.53 609.069Z" fill="#D3A962"/>
<path d="M602.047 624.99C604.665 626.067 600.817 645.203 604.372 652.818L604.582 653.253C601.53 655.698 596.28 650.957 595.44 651.37C577.74 660.049 577.44 647.716 578.16 631.281L576.63 626.281L577.507 625.345L583.65 625.167C583.575 630.7 581.43 649.269 588.54 649.794C603.54 650.897 594.847 634.123 596.04 626.302C597.885 624.609 598.957 625.151 602.047 624.99Z" fill="#D3A962"/>
<path d="M109.824 647.581C112.917 640.261 114.831 634.314 117.242 626.704C119.331 625.259 120.257 625.656 123.071 625.463C123.306 626.587 115.304 643.913 114.221 646.471C110.782 654.716 107.448 668.594 96.0417 665.908C94.8807 664.078 95.2925 664.468 95.5362 661.745C98.2947 658.662 114.782 666.516 99.758 638.014C97.5972 633.915 96.3005 629.949 93.431 625.909L92.9645 625.265C96.3147 625.227 98.2805 625.107 101.582 625.774C103.621 629.217 108.436 643.21 109.824 647.581Z" fill="#D3A962"/>
<path d="M405.585 625.293L429.712 625.242C423.877 634.403 418.462 642.097 412.14 650.882C420.322 650.987 421.867 650.597 429.532 647.671L430.132 648.452L429.285 653.748C420.667 653.643 411.81 653.785 403.17 653.823C408.465 645.653 415.222 636.407 420.855 628.245C412.807 628.332 412.597 628.703 405.585 632.186C404.602 629.919 405.285 628.082 405.585 625.293Z" fill="#D3A962"/>
<path d="M562.492 625.312L570.742 625.413C565.08 633.711 558.697 642.437 553.207 650.725C565.185 651.137 561.345 649.487 570.075 648.166C570.307 650.582 570 651.28 569.437 653.695L543.945 653.77C549.562 645.241 555.81 636.636 561.712 628.271C559.86 628.287 555.345 628.485 553.785 628.031C550.02 629.116 549.375 630.497 546.202 632.489C545.28 630.644 545.962 627.756 546.165 625.338L562.492 625.312Z" fill="#D3A962"/>
<path d="M212.23 624.651C216.698 624.338 222.913 624.119 225.831 628.077C226.042 630.578 226.005 629.762 224.832 632.308C223.32 632.135 216.07 622.008 210.403 629.991C212.061 636.765 222.535 636.161 227.227 644.296C227.815 649.959 223.79 651.955 219.106 653.905C214.678 654.048 208.742 654.288 205.285 651.535C204.559 649.419 204.648 649.322 205.312 647.094C209.542 645.879 214.195 656.509 220.99 648.692C220.874 641.978 189.346 633.839 212.23 624.651Z" fill="#D3A962"/>
<path d="M528 624.604C533.077 624.666 541.005 625.373 538.545 632.642C535.605 632.404 532.755 626.617 528.727 627.353C518.917 629.146 517.327 642.438 524.572 648.196C527.685 650.672 530.722 649.862 534.255 649.269C536.37 648.091 536.625 647.836 538.957 647.506L539.362 648.504C529.822 662.052 504.667 650.957 517.867 628.535C521.88 626.148 523.47 625.445 528 624.604Z" fill="#D3A962"/>
<path d="M233.601 625.47L241.648 624.978C241.551 631.158 241.297 648.482 242.471 653.755C240.073 653.8 236.265 654.145 234.202 653.313C235.892 647.476 236.585 630.874 233.601 625.47Z" fill="#D3A962"/>
<path d="M349.386 610.608C350.754 610.005 352.342 610.213 353.507 611.149C354.672 612.085 355.218 613.592 354.924 615.057C354.63 616.522 353.544 617.701 352.108 618.114C350.085 618.697 347.958 617.612 347.241 615.633C346.523 613.654 347.461 611.458 349.386 610.608Z" fill="#D3A962"/>
</svg>
